<svg width="12" height="12" viewBox="0 0 12 12" fill="none" xmlns="http://www.w3.org/2000/svg">
<path d="M6 7.5C6.405 7.5 6.75 7.35 7.055 7.055C7.35 6.75 7.5 6.405 7.5 6C7.5 5.595 7.35 5.25 7.055 4.945C6.75 4.65 6.405 4.5 6 4.5C5.595 4.5 5.25 4.65 4.945 4.945C4.65 5.25 4.5 5.595 4.5 6C4.5 6.405 4.65 6.75 4.945 7.055C5.25 7.35 5.595 7.5 6 7.5ZM6 1C7.375 1 8.55 1.5 9.525 2.475C10.5 3.45 11 4.625 11 6V6.725C11 7.225 10.825 7.65 10.5 8C10.15 8.335 9.75 8.5 9.25 8.5C8.65 8.5 8.155 8.25 7.78 7.75C7.28 8.25 6.69 8.5 6 8.5C5.315 8.5 4.725 8.25 4.23 7.77C3.75 7.275 3.5 6.69 3.5 6C3.5 5.315 3.75 4.725 4.23 4.23C4.725 3.75 5.315 3.5 6 3.5C6.69 3.5 7.275 3.75 7.77 4.23C8.25 4.725 8.5 5.315 8.5 6V6.725C8.5 6.93 8.58 7.11 8.73 7.265C8.88 7.42 9.055 7.5 9.25 7.5C9.46 7.5 9.635 7.42 9.785 7.265C9.935 7.11 10 6.93 10 6.725V6C10 4.905 9.615 3.965 8.825 3.175C8.035 2.385 7.095 2 6 2C4.905 2 3.965 2.385 3.175 3.175C2.385 3.965 2 4.905 2 6C2 7.095 2.385 8.035 3.175 8.825C3.965 9.615 4.905 10 6 10H8.5V11H6C4.625 11 3.45 10.5 2.475 9.525C1.5 8.55 1 7.375 1 6C1 4.625 1.5 3.45 2.475 2.475C3.45 1.5 4.625 1 6 1Z" fill="#45BDAF"/>
</svg>
