<svg width="12" height="12" viewBox="0 0 12 12" fill="none" xmlns="http://www.w3.org/2000/svg">
<path d="M3.31 5.395C4.03 6.81 5.19 7.97 6.605 8.69L7.705 7.59C7.845 7.45 8.04 7.41 8.215 7.465C8.775 7.65 9.375 7.75 10 7.75C10.1326 7.75 10.2598 7.80268 10.3536 7.89645C10.4473 7.99021 10.5 8.11739 10.5 8.25V10C10.5 10.1326 10.4473 10.2598 10.3536 10.3536C10.2598 10.4473 10.1326 10.5 10 10.5C7.74566 10.5 5.58365 9.60447 3.98959 8.01041C2.39553 6.41635 1.5 4.25434 1.5 2C1.5 1.86739 1.55268 1.74021 1.64645 1.64645C1.74021 1.55268 1.86739 1.5 2 1.5H3.75C3.88261 1.5 4.00979 1.55268 4.10355 1.64645C4.19732 1.74021 4.25 1.86739 4.25 2C4.25 2.625 4.35 3.225 4.535 3.785C4.59 3.96 4.55 4.155 4.41 4.295L3.31 5.395Z" fill="#45BDAF"/>
</svg>
